<svg xmlns="http://www.w3.org/2000/svg" version="1.1" xmlns:xlink="http://www.w3.org/1999/xlink" xmlns:svgjs="http://svgjs.dev/svgjs" width="1000" height="750" viewBox="0 0 1000 750"><rect width="1000" height="750" fill="#fbf918"></rect><g transform="matrix(0.5191111111111111,0,0,0.5191111111111111,240.4444444444445,83)"><svg viewBox="0 0 320 360" data-background-color="#fbf918" preserveAspectRatio="xMidYMid meet" height="1125" width="1000" xmlns="http://www.w3.org/2000/svg" xmlns:xlink="http://www.w3.org/1999/xlink"><g id="tight-bounds" transform="matrix(1,0,0,1,0,0)"><svg viewBox="0 0 320 360" height="360" width="320"><g><svg></svg></g><g><svg viewBox="0 0 320 360" height="360" width="320"><g><path xmlns="http://www.w3.org/2000/svg" d="M20.961 227.22l3.726 4.658-1.863-6.056c-0.466-2.795-3.726 0.466-1.863 1.398M25.153 224.425c1.397 2.329 2.795 4.658 2.795 6.987 0 3.261 2.795 4.658 5.123 5.589-3.261-3.726-5.124-13.974-7.918-12.576M204.017 26.929c7.918 0 15.371-0.932 23.756 0.931 20.495 5.124 37.729 15.371 49.374 29.811l32.606 52.169c1.397 13.042 4.192 27.482 3.726 43.319 3.261 0 2.795-4.658 6.521-5.59-3.726 9.316-5.59 20.961-6.521 34.469-2.329-7.453 0-18.632 0.466-24.687-3.261 5.124-5.124 1.397-5.124-0.932 0.466-3.726-1.397-3.261-2.795-4.658-5.124-4.658-8.384-9.782-12.11-17.7 2.329-6.055 2.795-14.905-4.658-19.563-2.329-1.397-5.124-3.726-6.521-7.453-1.863-5.124-5.124-11.179-4.193-19.097 0.466-2.329-6.987 5.124-11.179 1.863-18.166-12.576-36.332-27.016-58.224-39.127-11.645 0-20.029-4.192-24.221-9.316-3.726-4.658-0.932-10.713 4.658-11.179 3.261 0 6.987-0.932 9.782 0.932 0.466-1.863 2.329-4.192 4.657-4.192M157.904 16.215l0.932 0.466c4.658 0.932 6.987 7.453 12.11 5.124 0 3.261 0.466 6.521-0.466 8.85-1.397 3.726-5.59 3.726-8.85 3.726-31.208-1.863-49.374 11.179-68.471 22.358-5.124 3.261-10.713 5.59-14.906 9.782-20.029 18.632-41.921 35.866-47.045 70.335l-4.192 38.195c-0.466 4.192-5.124 8.384-4.192 13.508l3.26 22.824c-3.261-3.261-5.124 0.932-4.192 2.795 0.466 1.397 2.329 6.055 5.124 1.863 3.726 6.987 7.453 20.495 12.576 26.55 15.837 18.632 36.332 35.4 53.101 52.169 4.192-0.932 7.453-0.932 8.384-3.727 1.397 2.795-1.397 5.59-3.726 6.056 7.453 4.658 15.837 8.85 27.016 9.781 14.44 0.932 27.948 3.261 40.524 6.522 6.521-1.863 13.042-2.795 20.029-3.261 2.329 0 3.726-3.726 6.521-4.658l0.466-4.658c2.795 4.192 2.329-1.397 0.466-4.192 3.261 2.795 4.192 5.124 5.589 6.987 0-1.397 3.726-6.521 3.727-0.466l0.931-6.055c1.397-0.932 1.863 5.124 3.261 0.931 1.397-4.192 4.192-0.932 6.987-2.329-0.932 1.863-0.466 5.59 2.794 3.261l3.727-3.261c2.329 5.59 6.055 3.261 7.918 2.329 20.495-13.042 40.99-28.413 60.553-43.784l-0.466 6.055 2.329-7.453c2.329 2.329 4.192 0.466 5.124-0.931 2.795-4.658 6.521-9.316 12.577-13.508-7.453 20.029-16.303 35.866-27.482 48.908l-4.658 5.59c0 3.261-0.932 7.453-4.658 7.918-1.863 0.466-5.59-0.932-8.384 1.863-1.397 1.863 3.261 5.59-0.466 2.795-3.261-2.329-6.521 0-10.248 0.932-2.795 0.932 1.863 3.726 2.795 5.589 0.932 1.863 1.863 3.726 1.398 6.056l-5.124-5.59c-6.055 3.261-9.782 9.316-14.906 13.974-2.329 1.863-1.397 5.124-1.397 7.918-3.261 0-6.987-0.932-8.85 0.932-1.397 1.863-0.932 4.658-0.932 7.453-4.658-0.466-5.124-7.453-9.315-6.056-4.192 0.932-8.85 1.397-12.577 3.727 2.795 5.59-4.658 2.329-3.726 3.26-6.987-4.192-13.042-7.453-20.495-4.658-15.837-5.124-35.4-2.795-49.84-0.931 0-2.329 0.466-4.658-0.466-5.124-0.932 2.329-3.726 1.397-3.26 1.397-8.85-6.055-17.7-9.782-27.016-14.905-8.384 0.932-16.303-3.261-18.632-5.59-6.521-6.055-13.974-2.795-20.029-4.192-13.042-3.261-17.7-16.769-19.098-26.084-0.932-4.658-4.658-6.521-6.055-6.056-6.055-19.563-15.371-37.263-22.824-55.429-1.863-4.658-1.397-9.316-1.397-14.44 2.329 0.932 4.658 0.466 4.192-2.794-2.329-15.371-7.918-27.016-13.974-38.195 3.261-15.837 3.726-34.469 11.179-48.443 6.521-12.576 18.632-19.098 27.016-29.811 2.795-3.726 2.795-8.85 5.59-12.11 9.316-9.316 18.632-19.098 28.879-27.482 4.658-3.726 10.247 0 17.234-1.397 2.329-8.384 11.645-15.837 20.495-13.508 3.726 0.932 11.179-8.85 13.508-9.782 3.726-1.397 1.863 3.726 1.863 6.987 8.85-6.987 20.961-10.713 32.14-14.906" fill="#000000" fill-rule="nonzero" stroke="none" stroke-width="1" stroke-linecap="butt" stroke-linejoin="miter" stroke-miterlimit="10" stroke-dasharray="" stroke-dashoffset="0" font-family="none" font-weight="none" font-size="none" text-anchor="none" style="mix-blend-mode: normal" data-fill-palette-color="tertiary"></path></g><g transform="matrix(1,0,0,1,64,134.10484668644906)"><svg viewBox="0 0 192 91.79030662710188" height="91.79030662710188" width="192"><g><svg viewBox="0 0 192 91.79030662710188" height="91.79030662710188" width="192"><g><svg viewBox="0 0 192 91.79030662710188" height="91.79030662710188" width="192"><g><svg viewBox="0 0 192 91.79030662710188" height="91.79030662710188" width="192"><g id="textblocktransform"><svg viewBox="0 0 192 91.79030662710188" height="91.79030662710188" width="192" id="textblock"><g><svg viewBox="0 0 192 91.79030662710188" height="91.79030662710188" width="192"><g transform="matrix(1,0,0,1,0,0)"><svg width="192" viewBox="0.12000000476837158 -34.790000915527344 74.04999542236328 35.400001525878906" height="91.79030662710188" data-palette-color="#000000"><path d="M0.12-0.2L0.12-1.15Q0.12-1.34 0.32-1.34L0.32-1.34Q0.78-1.37 1.4-1.48 2.03-1.59 2.67-1.94 3.32-2.29 3.93-2.99 4.54-3.69 4.96-4.91L4.96-4.91 14.77-33.37Q14.77-33.35 14.78-33.4 14.79-33.45 14.79-33.5L14.79-33.5Q14.79-33.67 14.66-33.92 14.53-34.18 14.53-34.3L14.53-34.3Q14.53-34.42 14.62-34.42L14.62-34.42 21.7-34.42Q21.75-34.4 21.84-34.38 21.92-34.35 21.97-34.23L21.97-34.23 32.3-5.25Q32.54-4.57 32.76-4.08 32.98-3.59 33.29-3.21 33.59-2.83 34.06-2.53 34.52-2.22 35.25-1.9L35.25-1.9Q35.6-1.73 36.18-1.54 36.77-1.34 37.3-1.34L37.3-1.34Q37.43-1.34 37.46-1.27 37.5-1.2 37.5-1.12L37.5-1.12 37.5-0.2Q37.5-0.15 37.46-0.07 37.43 0 37.3 0L37.3 0 20.17 0Q20.04 0 20.01-0.07 19.97-0.15 19.97-0.2L19.97-0.2 19.97-1.15Q19.97-1.2 20.01-1.27 20.04-1.34 20.17-1.34L20.17-1.34Q20.26-1.34 20.36-1.35 20.46-1.37 20.51-1.37L20.51-1.37Q20.78-1.39 21.28-1.42 21.78-1.44 22.36-1.5 22.95-1.56 23.55-1.7 24.15-1.83 24.63-2.09 25.12-2.34 25.44-2.76 25.76-3.17 25.76-3.78L25.76-3.78Q25.76-3.93 25.71-4.13L25.71-4.13 22.51-12.94Q22.49-12.99 22.42-13.16 22.36-13.33 22.23-13.51 22.09-13.7 21.89-13.84 21.68-13.99 21.39-13.99L21.39-13.99 12.57-13.99Q12.26-13.99 12.04-13.84 11.82-13.7 11.67-13.53 11.52-13.35 11.44-13.18 11.35-13.01 11.35-12.99L11.35-12.99Q10.57-10.69 10.03-9.12 9.5-7.54 9.14-6.52 8.79-5.49 8.59-4.93 8.4-4.37 8.31-4.11 8.23-3.86 8.22-3.8 8.2-3.74 8.2-3.74L8.2-3.74Q8.2-3.66 8.23-3.58 8.25-3.49 8.28-3.42L8.28-3.42Q8.47-2.81 9-2.4 9.52-2 10.21-1.77 10.89-1.54 11.61-1.44 12.33-1.34 12.89-1.34L12.89-1.34 13.53-1.34Q13.65-1.34 13.68-1.27 13.72-1.2 13.72-1.15L13.72-1.15 13.72-0.2Q13.72-0.15 13.68-0.07 13.65 0 13.53 0L13.53 0 0.32 0Q0.12 0 0.12-0.2L0.12-0.2ZM15.99-26.39L12.92-17.5Q12.87-17.38 12.84-17.26 12.82-17.14 12.82-17.02L12.82-17.02Q12.82-16.87 12.89-16.78 12.96-16.7 13.18-16.7L13.18-16.7 20.51-16.7Q20.78-16.7 20.86-16.81 20.95-16.92 20.95-17.07L20.95-17.07Q20.95-17.19 20.92-17.29 20.9-17.38 20.85-17.5L20.85-17.5 17.6-26.42Q17.48-26.76 17.24-26.92 16.99-27.08 16.8-27.08L16.8-27.08Q16.6-27.08 16.36-26.89 16.11-26.71 15.99-26.39L15.99-26.39ZM38.69-0.98L38.69-1.27Q38.69-1.29 38.72-1.38 38.74-1.46 38.89-1.46L38.89-1.46Q39.04-1.46 39.35-1.51 39.67-1.56 40.01-1.61 40.35-1.66 40.65-1.72 40.94-1.78 41.06-1.81L41.06-1.81Q42.45-2.12 43-2.84 43.55-3.56 43.55-4.64L43.55-4.64 43.55-29.44Q43.55-30.66 43.04-31.37 42.53-32.08 41.86-32.43 41.18-32.79 40.56-32.87 39.94-32.96 39.72-32.96L39.72-32.96 38.79-32.96Q38.67-32.96 38.63-33.03 38.6-33.11 38.6-33.15L38.6-33.15 38.6-34.23Q38.6-34.28 38.62-34.34 38.64-34.4 38.79-34.42L38.79-34.42Q38.82-34.42 38.9-34.42 38.99-34.42 39.26-34.44 39.52-34.45 40.04-34.46 40.55-34.47 41.48-34.5L41.48-34.5Q42.82-34.52 44.35-34.57 45.87-34.62 47.43-34.67 49-34.72 50.52-34.75 52.05-34.79 53.39-34.79L53.39-34.79 55.86-34.79Q57.79-34.79 59.79-34.13 61.79-33.47 63.41-32.19 65.04-30.91 66.07-29 67.11-27.1 67.11-24.61L67.11-24.61Q67.11-23 66.67-21.74 66.23-20.48 65.46-19.52 64.69-18.55 63.63-17.82 62.57-17.09 61.33-16.53L61.33-16.53 68.72-4.81Q69.68-3.3 70.94-2.06 72.21-0.83 73.9-0.34L73.9-0.34Q74.09-0.29 74.13-0.21 74.17-0.12 74.17 0L74.17 0Q74.17 0.37 73.97 0.49 73.78 0.61 73.36 0.61L73.36 0.61Q72.34 0.61 71.03 0.48 69.72 0.34 68.41 0.04 67.09-0.27 65.9-0.76 64.72-1.25 63.91-1.98L63.91-1.98Q63.13-2.66 62.33-3.71 61.52-4.76 60.7-5.97 59.89-7.18 59.09-8.48 58.3-9.79 57.55-11.04 56.81-12.28 56.13-13.35 55.44-14.43 54.88-15.19L54.88-15.19 51.07-15.45Q51.05-15.45 50.88-15.45 50.71-15.45 50.63-15.41L50.63-15.41Q50.56-15.36 50.53-15.31 50.51-15.26 50.51-15.11L50.51-15.11 50.51-4.71Q50.51-4.05 50.68-3.56 50.85-3.08 51.25-2.72 51.66-2.37 52.3-2.15 52.95-1.93 53.88-1.81L53.88-1.81Q54.03-1.78 54.31-1.73 54.59-1.68 54.92-1.62 55.25-1.56 55.56-1.51 55.88-1.46 56.1-1.46L56.1-1.46Q56.25-1.46 56.27-1.39 56.3-1.32 56.3-1.27L56.3-1.27 56.3-0.2Q56.3-0.15 56.26-0.07 56.22 0 56.1 0L56.1 0 38.89 0Q38.77 0 38.73-0.34 38.69-0.68 38.69-0.98L38.69-0.98ZM50.51-18.63L50.56-17.9Q50.58-17.7 50.67-17.54 50.75-17.38 51.02-17.36L51.02-17.36Q51.24-17.33 51.68-17.27 52.12-17.21 52.9-17.21L52.9-17.21Q55.05-17.21 56.44-17.87 57.83-18.53 58.64-19.64 59.45-20.75 59.75-22.19 60.06-23.63 60.06-25.2L60.06-25.2Q60.06-26.83 59.54-28.3 59.03-29.76 58.12-30.83 57.2-31.91 55.92-32.54 54.64-33.18 53.1-33.18L53.1-33.18Q52.76-33.18 52.56-33.17 52.37-33.15 52.18-33.14 52-33.13 51.77-33.12 51.54-33.11 51.12-33.08L51.12-33.08Q50.97-33.08 50.74-33.02 50.51-32.96 50.51-32.69L50.51-32.69 50.51-18.63Z" opacity="1" transform="matrix(1,0,0,1,0,0)" fill="#000000" class="undefined-text-0" data-fill-palette-color="primary" id="text-0"></path></svg></g></svg></g></svg></g></svg></g><g></g></svg></g></svg></g></svg></g></svg></g><defs></defs></svg><rect width="320" height="360" fill="none" stroke="none" visibility="hidden"></rect></g></svg></g></svg>