<svg xmlns="http://www.w3.org/2000/svg" version="1.1" xmlns:xlink="http://www.w3.org/1999/xlink" xmlns:svgjs="http://svgjs.dev/svgjs" width="1000" height="1125" viewBox="0 0 1000 1125"><g transform="matrix(1,0,0,1,1.7053025658242404e-13,0)"><svg viewBox="0 0 320 360" data-background-color="#ffffff" preserveAspectRatio="xMidYMid meet" height="1125" width="1000" xmlns="http://www.w3.org/2000/svg" xmlns:xlink="http://www.w3.org/1999/xlink"><g id="tight-bounds" transform="matrix(1,0,0,1,0,0)"><svg viewBox="0 0 320 360" height="360" width="320"><g><svg></svg></g><g><svg viewBox="0 0 320 360" height="360" width="320"><g><path xmlns="http://www.w3.org/2000/svg" d="M20.961 227.22l3.726 4.658-1.863-6.056c-0.466-2.795-3.726 0.466-1.863 1.398M25.153 224.425c1.397 2.329 2.795 4.658 2.795 6.987 0 3.261 2.795 4.658 5.123 5.589-3.261-3.726-5.124-13.974-7.918-12.576M204.017 26.929c7.918 0 15.371-0.932 23.756 0.931 20.495 5.124 37.729 15.371 49.374 29.811l32.606 52.169c1.397 13.042 4.192 27.482 3.726 43.319 3.261 0 2.795-4.658 6.521-5.59-3.726 9.316-5.59 20.961-6.521 34.469-2.329-7.453 0-18.632 0.466-24.687-3.261 5.124-5.124 1.397-5.124-0.932 0.466-3.726-1.397-3.261-2.795-4.658-5.124-4.658-8.384-9.782-12.11-17.7 2.329-6.055 2.795-14.905-4.658-19.563-2.329-1.397-5.124-3.726-6.521-7.453-1.863-5.124-5.124-11.179-4.193-19.097 0.466-2.329-6.987 5.124-11.179 1.863-18.166-12.576-36.332-27.016-58.224-39.127-11.645 0-20.029-4.192-24.221-9.316-3.726-4.658-0.932-10.713 4.658-11.179 3.261 0 6.987-0.932 9.782 0.932 0.466-1.863 2.329-4.192 4.657-4.192M157.904 16.215l0.932 0.466c4.658 0.932 6.987 7.453 12.11 5.124 0 3.261 0.466 6.521-0.466 8.85-1.397 3.726-5.59 3.726-8.85 3.726-31.208-1.863-49.374 11.179-68.471 22.358-5.124 3.261-10.713 5.59-14.906 9.782-20.029 18.632-41.921 35.866-47.045 70.335l-4.192 38.195c-0.466 4.192-5.124 8.384-4.192 13.508l3.26 22.824c-3.261-3.261-5.124 0.932-4.192 2.795 0.466 1.397 2.329 6.055 5.124 1.863 3.726 6.987 7.453 20.495 12.576 26.55 15.837 18.632 36.332 35.4 53.101 52.169 4.192-0.932 7.453-0.932 8.384-3.727 1.397 2.795-1.397 5.59-3.726 6.056 7.453 4.658 15.837 8.85 27.016 9.781 14.44 0.932 27.948 3.261 40.524 6.522 6.521-1.863 13.042-2.795 20.029-3.261 2.329 0 3.726-3.726 6.521-4.658l0.466-4.658c2.795 4.192 2.329-1.397 0.466-4.192 3.261 2.795 4.192 5.124 5.589 6.987 0-1.397 3.726-6.521 3.727-0.466l0.931-6.055c1.397-0.932 1.863 5.124 3.261 0.931 1.397-4.192 4.192-0.932 6.987-2.329-0.932 1.863-0.466 5.59 2.794 3.261l3.727-3.261c2.329 5.59 6.055 3.261 7.918 2.329 20.495-13.042 40.99-28.413 60.553-43.784l-0.466 6.055 2.329-7.453c2.329 2.329 4.192 0.466 5.124-0.931 2.795-4.658 6.521-9.316 12.577-13.508-7.453 20.029-16.303 35.866-27.482 48.908l-4.658 5.59c0 3.261-0.932 7.453-4.658 7.918-1.863 0.466-5.59-0.932-8.384 1.863-1.397 1.863 3.261 5.59-0.466 2.795-3.261-2.329-6.521 0-10.248 0.932-2.795 0.932 1.863 3.726 2.795 5.589 0.932 1.863 1.863 3.726 1.398 6.056l-5.124-5.59c-6.055 3.261-9.782 9.316-14.906 13.974-2.329 1.863-1.397 5.124-1.397 7.918-3.261 0-6.987-0.932-8.85 0.932-1.397 1.863-0.932 4.658-0.932 7.453-4.658-0.466-5.124-7.453-9.315-6.056-4.192 0.932-8.85 1.397-12.577 3.727 2.795 5.59-4.658 2.329-3.726 3.26-6.987-4.192-13.042-7.453-20.495-4.658-15.837-5.124-35.4-2.795-49.84-0.931 0-2.329 0.466-4.658-0.466-5.124-0.932 2.329-3.726 1.397-3.26 1.397-8.85-6.055-17.7-9.782-27.016-14.905-8.384 0.932-16.303-3.261-18.632-5.59-6.521-6.055-13.974-2.795-20.029-4.192-13.042-3.261-17.7-16.769-19.098-26.084-0.932-4.658-4.658-6.521-6.055-6.056-6.055-19.563-15.371-37.263-22.824-55.429-1.863-4.658-1.397-9.316-1.397-14.44 2.329 0.932 4.658 0.466 4.192-2.794-2.329-15.371-7.918-27.016-13.974-38.195 3.261-15.837 3.726-34.469 11.179-48.443 6.521-12.576 18.632-19.098 27.016-29.811 2.795-3.726 2.795-8.85 5.59-12.11 9.316-9.316 18.632-19.098 28.879-27.482 4.658-3.726 10.247 0 17.234-1.397 2.329-8.384 11.645-15.837 20.495-13.508 3.726 0.932 11.179-8.85 13.508-9.782 3.726-1.397 1.863 3.726 1.863 6.987 8.85-6.987 20.961-10.713 32.14-14.906" fill="#d74b4b" fill-rule="nonzero" stroke="none" stroke-width="1" stroke-linecap="butt" stroke-linejoin="miter" stroke-miterlimit="10" stroke-dasharray="" stroke-dashoffset="0" font-family="none" font-weight="none" font-size="none" text-anchor="none" style="mix-blend-mode: normal" data-fill-palette-color="tertiary"></path></g><g transform="matrix(1,0,0,1,93.61801946299902,90)"><svg viewBox="0 0 132.76396107400197 180" height="180" width="132.76396107400197"><g><svg viewBox="0 0 132.76396107400197 180" height="180" width="132.76396107400197"><g><svg viewBox="0 0 192 260.3116065566651" height="180" width="132.76396107400197"><g transform="matrix(1,0,0,1,0,152.1887997538119)"><svg viewBox="0 0 192 108.12280680285316" height="108.12280680285316" width="192"><g id="textblocktransform"><svg viewBox="0 0 192 108.12280680285316" height="108.12280680285316" width="192" id="textblock"><g><svg viewBox="0 0 192 108.12280680285316" height="108.12280680285316" width="192"><g transform="matrix(1,0,0,1,0,0)"><svg width="192" viewBox="1.1375000476837158 -35.15675735473633 62.60496520996094 35.25675582885742" height="108.12280680285316" data-palette-color="#d74b4b"><path d="M15.4-29.85L16.5-29.8 4.75-1.2Q4.55-0.6 4.05-0.25 3.55 0.1 3 0.1L3 0.1Q2.05 0.1 1.6-0.4 1.15-0.9 1.15-1.6L1.15-1.6Q1.1-1.95 1.25-2.35L1.25-2.35 14.2-33.85Q14.45-34.55 14.98-34.88 15.5-35.2 16.15-35.15L16.15-35.15Q16.8-35.15 17.32-34.8 17.85-34.45 18.05-33.85L18.05-33.85 30.95-2.65Q31.1-2.25 31.1-1.85L31.1-1.85Q31.1-0.95 30.5-0.43 29.9 0.1 29.15 0.1L29.15 0.1Q28.55 0.1 28.05-0.25 27.55-0.6 27.3-1.25L27.3-1.25 15.4-29.85ZM24.55-9.35L7.25-9.35 8.95-13.25 23.8-13.25 24.55-9.35ZM38.9 0L38.9 0Q37.95 0 37.27-0.6 36.6-1.2 36.6-2.05L36.6-2.05 36.6-33Q36.6-33.85 37.17-34.43 37.75-35 38.6-35L38.6-35 52.4-35Q55.2-35 57.45-33.73 59.7-32.45 61.02-30.23 62.35-28 62.35-25.1L62.35-25.1Q62.35-23 61.55-21.18 60.75-19.35 59.35-18.03 57.95-16.7 56.15-16L56.15-16 55.05-16.8Q56.75-16.4 58.1-15.38 59.45-14.35 60.3-12.78 61.15-11.2 61.2-9.1L61.2-9.1Q61.3-7.25 61.45-6.15 61.6-5.05 61.9-4.42 62.2-3.8 62.75-3.45L62.75-3.45Q63.45-3 63.67-2.25 63.9-1.5 63.4-0.8L63.4-0.8Q63.1-0.35 62.55-0.18 62 0 61.45-0.05 60.9-0.1 60.5-0.35L60.5-0.35Q59.7-0.8 58.95-1.68 58.2-2.55 57.7-4.2 57.2-5.85 57.2-8.7L57.2-8.7Q57.2-10.3 56.7-11.35 56.2-12.4 55.35-13.05 54.5-13.7 53.45-13.95 52.4-14.2 51.3-14.2L51.3-14.2 40.15-14.2 40.75-15.1 40.75-2.05Q40.75-1.2 40.25-0.6 39.75 0 38.9 0ZM40.75-16.9L40.15-17.8 52.4-17.8Q53.85-17.9 55.12-18.8 56.4-19.7 57.22-21.33 58.05-22.95 58.05-25L58.05-25Q58.05-27.65 56.37-29.4 54.7-31.15 52.15-31.15L52.15-31.15 40.35-31.15 40.75-32.1 40.75-16.9Z" opacity="1" transform="matrix(1,0,0,1,0,0)" fill="#d74b4b" class="undefined-text-0" data-fill-palette-color="primary" id="text-0"></path></svg></g></svg></g></svg></g></svg></g><g transform="matrix(1,0,0,1,36.672000000000004,0)"><svg viewBox="0 0 118.65599999999999 136.41108729391237" height="136.41108729391237" width="118.65599999999999"><g><svg xmlns="http://www.w3.org/2000/svg" xmlns:xlink="http://www.w3.org/1999/xlink" version="1.1" x="0" y="0" viewBox="22.600000381469727 19 54.80000305175781 63" style="enable-background:new 0 0 100 100;" xml:space="preserve" height="136.41108729391237" width="118.65599999999999" class="icon-icon-0" data-fill-palette-color="accent" id="icon-0"><path d="M70.3 60.1V36.4L49.8 24.5 29.2 36.4v23.7L49.8 72 70.3 60.1zM31.2 37.6l18.5-10.7 18.5 10.7V59L50.8 69.1v-4.4h-2v4.4L31.2 59V37.6z" fill="#d74b4b" data-fill-palette-color="accent"></path><rect x="44.9" y="42.9" transform="matrix(0.5 -0.866 0.866 0.5 -16.7639 62.7359)" width="2" height="6" fill="#d74b4b" data-fill-palette-color="accent"></rect><rect x="34.6" y="36.9" transform="matrix(0.5 -0.866 0.866 0.5 -16.7644 50.7337)" width="2" height="6" fill="#d74b4b" data-fill-palette-color="accent"></rect><rect x="50.6" y="44.9" transform="matrix(0.8661 -0.4999 0.4999 0.8661 -15.7562 32.9575)" width="6" height="2" fill="#d74b4b" data-fill-palette-color="accent"></rect><rect x="61" y="38.9" transform="matrix(0.8661 -0.4999 0.4999 0.8661 -11.3649 37.3493)" width="6" height="2" fill="#d74b4b" data-fill-palette-color="accent"></rect><rect x="48.8" y="52.7" width="2" height="6" fill="#d74b4b" data-fill-palette-color="accent"></rect><rect x="22.6" y="24" width="2" height="26" fill="#d74b4b" data-fill-palette-color="accent"></rect><rect x="22.6" y="55.9" width="2" height="6.7" fill="#d74b4b" data-fill-palette-color="accent"></rect><rect x="75.4" y="24" width="2" height="26" fill="#d74b4b" data-fill-palette-color="accent"></rect><rect x="68.7" y="19" width="2" height="10.9" fill="#d74b4b" data-fill-palette-color="accent"></rect><rect x="29.3" y="19" width="2" height="10.9" fill="#d74b4b" data-fill-palette-color="accent"></rect><rect x="75.4" y="55.9" width="2" height="6.7" fill="#d74b4b" data-fill-palette-color="accent"></rect><path d="M66.7 66.4c1.3 1.3 2 2.7 2 4.1 0 5.1-8.8 9.5-19.1 9.5s-19.1-4.3-19.1-9.5c0-1.5 0.7-3 2.2-4.3l-1.4-1.5c-1.9 1.7-2.8 3.7-2.8 5.8C28.5 77 37.7 82 49.6 82s21.1-5 21.1-11.5c0-1.9-0.9-3.9-2.5-5.5L66.7 66.4z" fill="#d74b4b" data-fill-palette-color="accent"></path></svg></g></svg></g><g></g></svg></g></svg></g></svg></g></svg></g><defs></defs></svg><rect width="320" height="360" fill="none" stroke="none" visibility="hidden"></rect></g></svg></g></svg>